# xmcd
#
# Track frame offsets: 
#        150
#        14429
#        25205
#        36213
#        49020
#        59880
#        71336
#        83627
#        97296
#        109248
#        121285
#        136030
#
# Disc length: 1961 seconds
#
# Revision: 1
# Processed by: cddbd v1.5.2PL0 Copyright (c) Steve Scherf et al.
# Submitted via: ExactAudioCopy v0.99pb4
#
DISCID=a407a70c
DTITLE=Eddie Floyd - Rare Stamps
DYEAR=1969
DGENRE=Soul
TTITLE0=Knock On Wood
TTITLE1=Raise Your Hand
TTITLE2=Love Is A Doggone Good Thing
TTITLE3=On A Saturday Night
TTITLE4=Things Get Better
TTITLE5=Bring It On Home To Me
TTITLE6=I've Never Found A Girl
TTITLE7=Big Bird
TTITLE8=Got To Make A Comeback
TTITLE9=I've Just Been Feeling Bad
TTITLE10=I'm Just The Kind Of Fool
TTITLE11=This House
EXTD=Label: Stax - Fantasy\nSCD24 2011-2\n24 Bit Remastered\n© 1981 - 
EXTD=2002
EXTT0=
EXTT1=
EXTT2=
EXTT3=
EXTT4=
EXTT5=
EXTT6=
EXTT7=
EXTT8=
EXTT9=
EXTT10=
EXTT11=
PLAYORDER=
